<svg width="58" height="55" viewBox="0 0 58 55" fill="none" xmlns="http://www.w3.org/2000/svg">
<g id="Facebook">
<g id="facebook">
<path id="Oval Copy" opacity="0.25" d="M56.3648 27.5294C56.3648 41.9343 44.121 53.7108 28.8926 53.7108C13.6641 53.7108 1.42036 41.9343 1.42036 27.5294C1.42036 13.1246 13.6641 1.34809 28.8926 1.34809C44.121 1.34809 56.3648 13.1246 56.3648 27.5294Z" stroke="white" stroke-width="2.55556"/>
<path id="Shape" d="M26.5914 35.9413L26.5652 28.2565H23.1426V24.963H26.5652V22.7673C26.5652 19.804 28.4722 18.376 31.2193 18.376C32.5351 18.376 33.6661 18.4702 33.9956 18.5124V21.6092L32.0904 21.61C30.5964 21.61 30.3071 22.2932 30.3071 23.2956V24.963H34.5513L33.4104 28.2565H30.3071V35.9413H26.5914Z" fill="white"/>
</g>
</g>
</svg>
