<svg width="97" height="99" viewBox="0 0 97 99" fill="none" xmlns="http://www.w3.org/2000/svg">
<g id="svg837950377_721" clip-path="url(#clip0_114_72)">
<g id="Clip path group">
<mask id="mask0_114_72" style="mask-type:luminance" maskUnits="userSpaceOnUse" x="0" y="1" width="97" height="97">
<g id="svg837950377_721_a">
<path id="Vector" d="M0.523438 1.48474L96.5552 1.48474V97.5165H0.523438L0.523438 1.48474Z" fill="white"/>
</g>
</mask>
<g mask="url(#mask0_114_72)">
<g id="Group">
<path id="Vector_2" d="M32.532 17.5201C32.532 26.355 39.7018 33.5248 48.5367 33.5248H80.5479C76.3037 33.5232 72.2337 31.8366 69.2326 28.8354C66.2315 25.8343 64.5448 21.7644 64.5433 17.5201M64.5144 17.4894V1.48474L32.5051 1.48474V17.4894H64.5144ZM64.5452 81.5368C64.5452 72.7038 57.3735 65.5341 48.5386 65.5341H16.5293C25.3642 65.5341 32.5339 72.7038 32.5339 81.5387" fill="white"/>
<path id="Vector_3" d="M32.5645 81.5121V97.5167H64.5738V81.5121H32.5645Z" fill="white"/>
<path id="Vector_4" d="M80.5505 33.5246C76.3063 33.5261 72.2363 35.2128 69.2352 38.2139C66.2341 41.215 64.5474 45.285 64.5459 49.5292V81.5366C64.5459 72.7017 71.7156 65.532 80.5505 65.532M80.5505 65.4763H96.5552V33.467H80.5505V65.4763ZM16.53 65.5358C25.3649 65.5358 32.5347 58.3641 32.5347 49.5292V17.5219C32.5347 26.3568 25.3649 33.5265 16.53 33.5265M16.5281 33.5246H0.523438L0.523438 65.5339H16.5281V33.5246Z" fill="white"/>
</g>
</g>
</g>
</g>
<defs>
<clipPath id="clip0_114_72">
<rect width="96.0317" height="97.9524" fill="white" transform="translate(0.523438 0.523804)"/>
</clipPath>
</defs>
</svg>
