<svg width="97" height="99" viewBox="0 0 97 99" fill="none" xmlns="http://www.w3.org/2000/svg">
<g id="svg837950377_721" clip-path="url(#clip0_114_94)">
<g id="Clip path group">
<mask id="mask0_114_94" style="mask-type:luminance" maskUnits="userSpaceOnUse" x="0" y="1" width="97" height="97">
<g id="svg837950377_721_a">
<path id="Vector" d="M0.523438 1.48486L96.5552 1.48486V97.5166H0.523438L0.523438 1.48486Z" fill="white"/>
</g>
</mask>
<g mask="url(#mask0_114_94)">
<g id="Group">
<path id="Vector_2" d="M32.532 17.5202C32.532 26.3552 39.7018 33.5249 48.5367 33.5249H80.5479C76.3037 33.5234 72.2337 31.8367 69.2326 28.8356C66.2315 25.8344 64.5448 21.7645 64.5433 17.5202M64.5144 17.4895V1.48486L32.5051 1.48486V17.4895H64.5144ZM64.5452 81.5369C64.5452 72.7039 57.3735 65.5342 48.5386 65.5342H16.5293C25.3642 65.5342 32.5339 72.7039 32.5339 81.5388" fill="white" fill-opacity="0.4"/>
<path id="Vector_3" d="M32.5645 81.5122V97.5169H64.5738V81.5122H32.5645Z" fill="white" fill-opacity="0.4"/>
<path id="Vector_4" d="M80.5505 33.5247C76.3063 33.5262 72.2363 35.2129 69.2352 38.214C66.2341 41.2152 64.5474 45.2851 64.5459 49.5294V81.5367C64.5459 72.7018 71.7156 65.5321 80.5505 65.5321M80.5505 65.4764H96.5552V33.4671H80.5505V65.4764ZM16.53 65.5359C25.3649 65.5359 32.5347 58.3643 32.5347 49.5294V17.522C32.5347 26.3569 25.3649 33.5266 16.53 33.5266M16.5281 33.5247H0.523438L0.523438 65.534H16.5281V33.5247Z" fill="white" fill-opacity="0.4"/>
</g>
</g>
</g>
</g>
<defs>
<clipPath id="clip0_114_94">
<rect width="96.0317" height="97.9524" fill="white" transform="translate(0.523438 0.523926)"/>
</clipPath>
</defs>
</svg>
