<svg width="58" height="55" viewBox="0 0 58 55" fill="none" xmlns="http://www.w3.org/2000/svg">
<g id="Instagram">
<g id="insta">
<path id="Oval Copy" opacity="0.25" d="M56.4761 27.5294C56.4761 41.9343 44.2323 53.7108 29.0039 53.7108C13.7755 53.7108 1.53168 41.9343 1.53168 27.5294C1.53168 13.1246 13.7755 1.34809 29.0039 1.34809C44.2323 1.34809 56.4761 13.1246 56.4761 27.5294Z" stroke="white" stroke-width="2.55556"/>
<g id="16px-logo-instagram">
<path id="Oval" d="M33.3092 24.4077C33.8596 24.4077 34.3058 23.9816 34.3058 23.4558C34.3058 22.9301 33.8596 22.5039 33.3092 22.5039C32.7587 22.5039 32.3125 22.9301 32.3125 23.4558C32.3125 23.9816 32.7587 24.4077 33.3092 24.4077Z" fill="white"/>
<path id="Shape" fill-rule="evenodd" clip-rule="evenodd" d="M24.8516 27.5288C24.8516 29.7162 26.7141 31.4951 29.0043 31.4951C31.2946 31.4951 33.1571 29.7162 33.1571 27.5288C33.1571 25.3414 31.2946 23.5625 29.0043 23.5625C26.7141 23.5625 24.8516 25.3414 24.8516 27.5288ZM26.9277 27.5291C26.9277 26.4353 27.859 25.5459 29.0041 25.5459C30.1493 25.5459 31.0805 26.4353 31.0805 27.5291C31.0805 28.6228 30.1493 29.5122 29.0041 29.5122C27.859 29.5122 26.9277 28.6228 26.9277 27.5291Z" fill="white"/>
<path id="Shape_2" fill-rule="evenodd" clip-rule="evenodd" d="M24.852 35.4619H33.1576C35.2921 35.4619 37.3103 33.5343 37.3103 31.4956V23.563C37.3103 21.5243 35.2921 19.5967 33.1576 19.5967H24.852C22.7175 19.5967 20.6992 21.5243 20.6992 23.563V31.4956C20.6992 33.5343 22.7175 35.4619 24.852 35.4619ZM22.7754 23.5632C22.7754 22.6361 23.8811 21.5801 24.8518 21.5801H33.1573C34.128 21.5801 35.2337 22.6361 35.2337 23.5632V31.4959C35.2337 32.423 34.128 33.479 33.1573 33.479H24.8518C23.8624 33.479 22.7754 32.4408 22.7754 31.4959V23.5632Z" fill="white"/>
</g>
</g>
</g>
</svg>
