<svg width="1920" height="1054" viewBox="0 0 1920 1054" fill="none" xmlns="http://www.w3.org/2000/svg">
<mask id="mask0_114_88" style="mask-type:alpha" maskUnits="userSpaceOnUse" x="-1768" y="12" width="3832" height="801">
<path d="M1869.67 490.798L1868.38 490.621C1812.16 501.258 1756.85 512.453 1701.72 523.612C1519.78 560.438 1339.84 596.862 1135.96 611.453C665.888 645.099 68.3079 562.601 -974.984 101.357L-976.393 101.164C67.7796 562.872 665.946 645.432 1136.55 611.748C1340.52 597.147 1520.52 560.718 1702.5 523.881C1757.79 512.689 1813.27 501.461 1869.66 490.796M1913.73 496.83L1912.44 496.653C1841.17 508.336 1771.04 520.994 1700.98 533.631C1506.55 568.726 1312.73 603.71 1097.05 617.372C591.225 649.405 -35.2098 564.102 -1072.91 87.9423L-1074.29 87.7535C-35.7456 564.371 591.273 649.746 1097.63 617.67C1313.39 604.004 1507.28 569.011 1701.72 533.91C1771.96 521.226 1842.28 508.54 1913.74 496.832L1913.73 496.83ZM1965.62 503.934L1964.23 503.744C1876.98 516.071 1790.89 529.947 1704.62 543.854C1496.56 577.397 1287.37 611.12 1057.91 623.705C514.914 653.488 -141.857 564.793 -1166.45 75.1456L-1167.81 74.9589C-142.41 565.069 514.943 653.815 1058.48 624.006C1288.03 611.415 1497.28 577.687 1705.38 544.137C1791.87 530.191 1878.17 516.283 1965.64 503.936L1965.62 503.934ZM2025.42 512.12L2023.98 511.923C1920.11 524.475 1817.08 539.335 1713.33 554.282C1490.09 586.465 1263.45 619.139 1017.73 630.458C436.449 657.246 -251.883 564.432 -1255.23 62.9908L-1256.57 62.8071C-252.48 564.702 436.469 657.575 1018.29 630.761C1264.09 619.433 1490.78 586.757 1714.07 554.569C1818.06 539.577 1921.33 524.694 2025.43 512.122L2025.42 512.12ZM2063.53 524.473L2063.62 524.101C1952.24 535.944 1840.68 550.337 1727.71 564.917C1487.27 595.941 1240.43 627.795 975.292 637.611C354.977 660.577 -365.731 562.79 -1339.22 51.4921L-1340.52 51.3146C-366.349 563.049 354.943 660.901 975.863 637.92C1241.11 628.101 1487.99 596.241 1728.46 565.217C1841.13 550.661 1952.43 536.3 2063.55 524.475L2063.53 524.473ZM2059.28 541.854L2059.37 541.487C1957.17 551.62 1853.72 563.59 1748.55 575.752C1488.43 605.833 1217.77 637.134 929.241 645.116C269.617 663.362 -483.588 559.614 -1418.11 40.6924L-1419.37 40.5199C-484.25 559.865 269.553 663.686 929.752 645.421C1218.37 637.435 1489.09 606.13 1749.25 576.053C1854.15 563.913 1957.34 551.981 2059.3 541.846L2059.28 541.854ZM2055.02 559.28L2055.1 558.918C1964.15 567.343 1871.42 576.965 1776.87 586.778C1494.06 616.132 1194.9 647.178 878.043 652.877C179.391 665.441 -605.571 554.667 -1491.73 30.613L-1492.96 30.4447C-606.268 554.902 179.276 665.754 878.516 653.179C1195.48 647.49 1494.68 616.427 1777.53 587.071C1871.84 577.286 1964.31 567.687 2055.03 559.282L2055.02 559.28ZM2050.74 576.747L2050.83 576.391C1973.62 583.064 1894.61 590.441 1813.91 597.973C1504.98 626.805 1171.36 657.955 820.062 660.751C83.2473 666.62 -731.494 547.749 -1559.81 21.2929L-1561.01 21.1286C-732.222 547.984 83.1332 666.929 820.519 661.057C1171.92 658.258 1505.59 627.111 1814.57 598.268C1895.01 590.759 1973.78 583.406 2050.76 576.749L2050.74 576.747ZM2046.46 594.254L2046.55 593.902C1986.17 598.77 1924.39 603.976 1861.33 609.287C1522.58 637.831 1146.85 669.489 753.606 668.542C-19.7113 666.686 -860.892 538.665 -1621.9 12.7931L-1623.08 12.6319C-861.633 538.89 -19.8758 666.982 754.039 668.849C1147.38 669.793 1523.17 638.132 1861.97 609.585C1924.78 604.294 1986.32 599.107 2046.47 594.256L2046.46 594.254ZM2042.17 611.798L2042.25 611.45C2002.66 614.424 1962.35 617.489 1921.33 620.646C1549.15 649.118 1121.43 681.84 677.002 675.995C-124.872 665.458 -981.126 529.276 -1663.54 15.9765L-1663.69 16.5803C-981.096 529.625 -124.684 665.758 677.397 676.301C1121.97 682.149 1549.73 649.419 1921.96 620.944C1962.72 617.825 2002.79 614.777 2042.18 611.8L2042.17 611.798ZM2037.87 629.373L2037.95 629.029L1997.05 631.903C1588.61 660.551 1095.75 695.114 588.669 682.808C-223.789 663.078 -1072.96 522.943 -1670.72 45.306L-1670.87 45.9419C-1072.87 523.283 -223.556 663.382 589.02 683.104C1096.26 695.419 1589.15 660.847 1997.65 632.195L2037.87 629.373ZM2033.56 646.981L2033.64 646.639C1597.23 675.073 1046.15 708.618 487.131 688.592C-328.17 659.388 -1160.42 516.139 -1678.42 76.7786L-1678.58 77.4346C-1160.24 516.495 -327.958 659.685 487.457 688.897C1046.31 708.912 1597.22 675.404 2033.57 646.983L2033.56 646.981ZM2029.25 664.615L2029.33 664.277C1569.58 692.114 969.153 721.554 371.285 692.972C-437.398 654.315 -1241.46 509.422 -1686.73 110.771L-1686.9 111.463C-1241.23 509.788 -437.155 654.612 371.558 693.274C969.314 721.842 1569.52 692.444 2029.26 664.617L2029.25 664.615ZM2024.93 682.273L2025.01 681.939C1493.39 711.809 756.947 738.703 62.3847 683.068C-663.152 624.952 -1342.93 476.73 -1695.78 147.765L-1695.96 148.479C-1342.68 477.116 -662.946 625.244 62.529 683.36C757.023 738.99 1493.27 712.134 2024.94 682.275L2024.93 682.273ZM2020.6 699.957L2020.68 699.625C1479.44 727.798 709.517 747.877 -4.72962 688.068C-726.441 627.634 -1391.23 485.609 -1705.6 187.911L-1705.78 188.629C-1390.91 485.998 -726.191 627.935 -4.58537 688.36C709.556 748.159 1479.31 728.117 2020.61 699.959L2020.6 699.957ZM2016.27 717.666L2016.35 717.334C1466.94 743.772 665.929 756.993 -66.5789 693.524C-352.167 668.776 -627.332 632.376 -873.089 580.555C-1118.85 528.733 -1335.16 461.502 -1503.13 375.084C-1586.96 331.952 -1658.74 284.043 -1716.12 230.888L-1716.29 231.6C-1659.02 284.488 -1587.48 332.182 -1503.99 375.137C-1335.88 461.625 -1119.36 528.917 -873.421 580.778C-627.481 632.639 -352.189 669.056 -66.457 693.813C665.953 757.275 1466.76 744.083 2016.28 717.668L2016.27 717.666ZM2011.93 735.396L2012.01 735.068C1426.63 761.043 538.508 766.781 -240.454 688.375C-507.646 661.481 -761.994 624.687 -986.86 575.413C-1211.73 526.14 -1407.07 464.4 -1556.38 387.594C-1622.92 353.353 -1680.31 316.118 -1727.07 275.664L-1727.24 276.342C-1680.6 316.554 -1623.44 353.578 -1557.22 387.649C-1407.82 464.517 -1212.27 526.317 -987.236 575.628C-762.202 624.939 -507.742 661.747 -240.407 688.656C538.495 767.056 1426.44 761.352 2011.95 735.398L2011.93 735.396ZM2007.59 753.149L2007.67 752.821C1582.65 770.166 989.506 774.227 394.347 745.055C-50.3496 723.252 -496.134 682.91 -873.674 615.693C-1251.21 548.475 -1560.36 454.419 -1732.06 325.166C-1734.08 323.642 -1736.08 322.115 -1738.06 320.585L-1738.21 321.188C-1736.48 322.515 -1734.75 323.835 -1733.01 325.15C-1561.16 454.526 -1251.66 548.676 -873.888 615.938C-496.113 683.2 -50.2373 723.548 394.606 745.352C989.575 774.513 1582.54 770.471 2007.6 753.151L2007.59 753.149ZM2003.24 770.915L2003.32 770.591C1549.38 787.565 894.43 786.56 250.216 748.333C-188.378 722.304 -621.989 679.021 -983.695 612.414C-1317.31 550.983 -1589.77 469.709 -1748.64 363.831L-1748.77 364.371C-1589.64 470.093 -1317.29 551.261 -983.953 612.653C-622.041 679.295 -188.295 722.594 250.459 748.63C894.498 786.85 1549.26 787.87 2003.26 770.918L2003.24 770.915ZM1998.89 788.702L1998.97 788.38C1515.27 804.892 793.372 797.939 99.7122 749.856C-330.623 720.044 -750.104 674.389 -1095 608.695C-1378.19 554.756 -1611.08 487.298 -1758.47 403.997L-1758.58 404.47C-1611.01 487.655 -1378.22 555.037 -1095.26 608.934C-750.206 674.649 -330.585 720.328 99.9221 750.164C793.372 798.22 1515.12 805.192 1998.9 788.704L1998.89 788.702ZM1994.53 806.503L1994.61 806.183C1480.88 822.124 687.683 808.317 -54.5466 749.822C-474.89 716.696 -878.863 669.242 -1206.41 604.747C-1439.2 558.904 -1633.37 504.453 -1767.38 440.428L-1767.48 440.842C-1633.35 504.79 -1439.28 559.187 -1206.69 604.979C-878.997 669.504 -474.874 716.979 -54.3952 750.115C687.668 808.595 1480.67 822.421 1994.55 806.505L1994.53 806.503ZM-874.103 115.168C168.793 560.774 739.682 640.946 1176.12 606.215C1369.82 590.803 1537.03 552.778 1707.32 514.051C1748.99 504.573 1790.85 495.06 1833.31 485.82L1832.06 485.649C1789.75 494.857 1748.03 504.34 1706.5 513.783C1536.25 552.501 1369.09 590.518 1175.51 605.918C739.55 640.603 169.276 560.501 -872.657 115.366L-874.103 115.168Z" fill="#1F1F1F"/>
</mask>
<g mask="url(#mask0_114_88)">
<rect x="1916.21" y="891.844" width="3530.81" height="316" transform="rotate(-174.727 1916.21 891.844)" fill="white"/>
</g>
</svg>
