<svg width="59" height="55" viewBox="0 0 59 55" fill="none" xmlns="http://www.w3.org/2000/svg">
<g id="linkedin">
<path id="Oval Copy" opacity="0.25" d="M56.8711 27.5294C56.8711 41.8393 44.7058 53.5511 29.5586 53.5511C14.4114 53.5511 2.24609 41.8393 2.24609 27.5294C2.24609 13.2196 14.4114 1.50781 29.5586 1.50781C44.7058 1.50781 56.8711 13.2196 56.8711 27.5294Z" stroke="white" stroke-width="2.875"/>
<g id="Linkedin icon">
<g id="linkedin_2">
<path id="Oval" d="M23.4102 23.7155C24.601 23.7155 25.5664 22.7935 25.5664 21.6561C25.5664 20.5187 24.601 19.5967 23.4102 19.5967C22.2193 19.5967 21.2539 20.5187 21.2539 21.6561C21.2539 22.7935 22.2193 23.7155 23.4102 23.7155Z" fill="white"/>
<path id="Shape" d="M25.207 25.0889H21.6133C21.4149 25.0889 21.2539 25.2426 21.2539 25.4321V35.7293C21.2539 35.9187 21.4149 36.0725 21.6133 36.0725H25.207C25.4054 36.0725 25.5664 35.9187 25.5664 35.7293V25.4321C25.5664 25.2426 25.4054 25.0889 25.207 25.0889Z" fill="white"/>
<path id="Shape_2" d="M35.9143 24.6159C34.3783 24.1134 32.4571 24.5548 31.3049 25.3463C31.2654 25.1987 31.1245 25.0889 30.957 25.0889H27.3633C27.1649 25.0889 27.0039 25.2426 27.0039 25.4321V35.7293C27.0039 35.9187 27.1649 36.0725 27.3633 36.0725H30.957C31.1554 36.0725 31.3164 35.9187 31.3164 35.7293V28.329C31.8972 27.8512 32.6454 27.6989 33.2578 27.9474C33.8514 28.1869 34.1914 28.7718 34.1914 29.551V35.7293C34.1914 35.9187 34.3524 36.0725 34.5508 36.0725H38.1445C38.3429 36.0725 38.5039 35.9187 38.5039 35.7293V28.8597C38.4629 26.0389 37.0736 24.9948 35.9143 24.6159Z" fill="white"/>
</g>
</g>
</g>
</svg>
