<svg width="59" height="55" viewBox="0 0 59 55" fill="none" xmlns="http://www.w3.org/2000/svg">
<g id="Youtube">
<g id="twitter">
<path id="Oval Copy" opacity="0.25" d="M56.9195 27.5294C56.9195 41.9343 44.6757 53.7108 29.4473 53.7108C14.2188 53.7108 1.97504 41.9343 1.97504 27.5294C1.97504 13.1246 14.2188 1.34809 29.4473 1.34809C44.6757 1.34809 56.9195 13.1246 56.9195 27.5294Z" stroke="white" stroke-width="2.55556"/>
</g>
<g id="bxl-youtube">
<path id="Shape" fill-rule="evenodd" clip-rule="evenodd" d="M38.0919 21.2361C38.9674 21.4574 39.6569 22.106 39.8918 22.928C40.328 24.4283 40.3076 27.5564 40.3076 27.5564C40.3076 27.5564 40.3045 30.6673 39.8816 32.1667C39.6436 32.9877 38.951 33.6354 38.0766 33.8557C36.477 34.2485 30.0773 34.2418 30.0773 34.2418C30.0773 34.2418 23.6949 34.2351 22.0789 33.8232C21.2025 33.6018 20.513 32.9532 20.278 32.1322C19.8592 30.6472 19.8633 27.52 19.8633 27.52C19.8633 27.52 19.8674 24.4082 20.2892 22.9079C20.5262 22.0868 21.2352 21.4238 22.0932 21.2044C23.6939 20.8107 30.0926 20.8174 30.0926 20.8174C30.0926 20.8174 36.4923 20.8241 38.0919 21.2361ZM28.052 24.6543L28.0469 30.4027L33.3709 27.5333L28.052 24.6543Z" fill="white"/>
</g>
</g>
</svg>
